<svg width="513" height="191" viewBox="0 0 513 191" fill="none" xmlns="http://www.w3.org/2000/svg">
<mask id="path-1-outside-1_204_43" maskUnits="userSpaceOnUse" x="8" y="26" width="499" height="83" fill="black">
<rect fill="white" x="8" y="26" width="499" height="83"/>
<path d="M9.91 106L43.57 29H69.09L102.75 106H75.91L51.05 41.32H61.17L36.31 106H9.91ZM29.93 92.58L36.53 73.88H71.95L78.55 92.58H29.93ZM106.893 106V29H142.863C154.67 29 163.653 31.6033 169.813 36.81C175.973 42.0167 179.053 49.0933 179.053 58.04C179.053 63.98 177.623 69.1133 174.763 73.44C171.903 77.6933 167.833 80.9567 162.553 83.23C157.346 85.5033 151.15 86.64 143.963 86.64H121.303L132.853 75.97V106H106.893ZM152.983 106L134.063 77.95H161.563L180.703 106H152.983ZM132.853 78.83L121.303 67.06H142.313C145.906 67.06 148.546 66.2533 150.233 64.64C151.993 63.0267 152.873 60.8267 152.873 58.04C152.873 55.2533 151.993 53.0533 150.233 51.44C148.546 49.8267 145.906 49.02 142.313 49.02H121.303L132.853 37.25V78.83ZM204.502 106V49.13H181.952V29H253.012V49.13H230.462V106H204.502ZM259.754 106V29H285.714V106H259.754ZM326.921 107.76C320.468 107.76 314.235 107.027 308.221 105.56C302.208 104.093 297.258 102.187 293.371 99.84L301.731 80.92C305.398 83.0467 309.468 84.77 313.941 86.09C318.488 87.3367 322.888 87.96 327.141 87.96C329.635 87.96 331.578 87.8133 332.971 87.52C334.438 87.1533 335.501 86.6767 336.161 86.09C336.821 85.43 337.151 84.66 337.151 83.78C337.151 82.3867 336.381 81.2867 334.841 80.48C333.301 79.6733 331.248 79.0133 328.681 78.5C326.188 77.9133 323.438 77.3267 320.431 76.74C317.425 76.08 314.381 75.2367 311.301 74.21C308.295 73.1833 305.508 71.8267 302.941 70.14C300.448 68.4533 298.431 66.2533 296.891 63.54C295.351 60.7533 294.581 57.3067 294.581 53.2C294.581 48.4333 295.901 44.1067 298.541 40.22C301.255 36.26 305.251 33.1067 310.531 30.76C315.885 28.4133 322.521 27.24 330.441 27.24C335.648 27.24 340.781 27.79 345.841 28.89C350.901 29.99 355.448 31.6767 359.481 33.95L351.671 52.76C347.858 50.8533 344.155 49.4233 340.561 48.47C337.041 47.5167 333.595 47.04 330.221 47.04C327.728 47.04 325.748 47.26 324.281 47.7C322.815 48.14 321.751 48.7267 321.091 49.46C320.505 50.1933 320.211 51 320.211 51.88C320.211 53.2 320.981 54.2633 322.521 55.07C324.061 55.8033 326.078 56.4267 328.571 56.94C331.138 57.4533 333.925 58.0033 336.931 58.59C340.011 59.1767 343.055 59.9833 346.061 61.01C349.068 62.0367 351.818 63.3933 354.311 65.08C356.878 66.7667 358.931 68.9667 360.471 71.68C362.011 74.3933 362.781 77.7667 362.781 81.8C362.781 86.4933 361.425 90.82 358.711 94.78C356.071 98.6667 352.111 101.82 346.831 104.24C341.551 106.587 334.915 107.76 326.921 107.76ZM386.152 106V49.13H363.602V29H434.662V49.13H412.112V106H386.152ZM470.115 107.76C463.661 107.76 457.428 107.027 451.415 105.56C445.401 104.093 440.451 102.187 436.565 99.84L444.925 80.92C448.591 83.0467 452.661 84.77 457.135 86.09C461.681 87.3367 466.081 87.96 470.335 87.96C472.828 87.96 474.771 87.8133 476.165 87.52C477.631 87.1533 478.695 86.6767 479.355 86.09C480.015 85.43 480.345 84.66 480.345 83.78C480.345 82.3867 479.575 81.2867 478.035 80.48C476.495 79.6733 474.441 79.0133 471.875 78.5C469.381 77.9133 466.631 77.3267 463.625 76.74C460.618 76.08 457.575 75.2367 454.495 74.21C451.488 73.1833 448.701 71.8267 446.135 70.14C443.641 68.4533 441.625 66.2533 440.085 63.54C438.545 60.7533 437.775 57.3067 437.775 53.2C437.775 48.4333 439.095 44.1067 441.735 40.22C444.448 36.26 448.445 33.1067 453.725 30.76C459.078 28.4133 465.715 27.24 473.635 27.24C478.841 27.24 483.975 27.79 489.035 28.89C494.095 29.99 498.641 31.6767 502.675 33.95L494.865 52.76C491.051 50.8533 487.348 49.4233 483.755 48.47C480.235 47.5167 476.788 47.04 473.415 47.04C470.921 47.04 468.941 47.26 467.475 47.7C466.008 48.14 464.945 48.7267 464.285 49.46C463.698 50.1933 463.405 51 463.405 51.88C463.405 53.2 464.175 54.2633 465.715 55.07C467.255 55.8033 469.271 56.4267 471.765 56.94C474.331 57.4533 477.118 58.0033 480.125 58.59C483.205 59.1767 486.248 59.9833 489.255 61.01C492.261 62.0367 495.011 63.3933 497.505 65.08C500.071 66.7667 502.125 68.9667 503.665 71.68C505.205 74.3933 505.975 77.7667 505.975 81.8C505.975 86.4933 504.618 90.82 501.905 94.78C499.265 98.6667 495.305 101.82 490.025 104.24C484.745 106.587 478.108 107.76 470.115 107.76Z"/>
</mask>
<path d="M9.91 106L8.99372 105.599L8.38148 107H9.91V106ZM43.57 29V28H42.9158L42.6537 28.5995L43.57 29ZM69.09 29L70.0063 28.5995L69.7442 28H69.09V29ZM102.75 106V107H104.279L103.666 105.599L102.75 106ZM75.91 106L74.9766 106.359L75.223 107H75.91V106ZM51.05 41.32V40.32H49.5943L50.1166 41.6788L51.05 41.32ZM61.17 41.32L62.1034 41.6788L62.6257 40.32H61.17V41.32ZM36.31 106V107H36.997L37.2434 106.359L36.31 106ZM29.93 92.58L28.987 92.2472L28.5166 93.58H29.93V92.58ZM36.53 73.88V72.88H35.8225L35.587 73.5472L36.53 73.88ZM71.95 73.88L72.893 73.5472L72.6575 72.88H71.95V73.88ZM78.55 92.58V93.58H79.9634L79.493 92.2472L78.55 92.58ZM9.91 106L10.8263 106.401L44.4863 29.4005L43.57 29L42.6537 28.5995L8.99372 105.599L9.91 106ZM43.57 29V30H69.09V29V28H43.57V29ZM69.09 29L68.1737 29.4005L101.834 106.401L102.75 106L103.666 105.599L70.0063 28.5995L69.09 29ZM102.75 106V105H75.91V106V107H102.75V106ZM75.91 106L76.8434 105.641L51.9834 40.9612L51.05 41.32L50.1166 41.6788L74.9766 106.359L75.91 106ZM51.05 41.32V42.32H61.17V41.32V40.32H51.05V41.32ZM61.17 41.32L60.2366 40.9612L35.3766 105.641L36.31 106L37.2434 106.359L62.1034 41.6788L61.17 41.32ZM36.31 106V105H9.91V106V107H36.31V106ZM29.93 92.58L30.873 92.9128L37.473 74.2128L36.53 73.88L35.587 73.5472L28.987 92.2472L29.93 92.58ZM36.53 73.88V74.88H71.95V73.88V72.88H36.53V73.88ZM71.95 73.88L71.007 74.2128L77.607 92.9128L78.55 92.58L79.493 92.2472L72.893 73.5472L71.95 73.88ZM78.55 92.58V91.58H29.93V92.58V93.58H78.55V92.58ZM106.893 106H105.893V107H106.893V106ZM106.893 29V28H105.893V29H106.893ZM169.813 36.81L169.168 37.5737L169.813 36.81ZM174.763 73.44L175.593 73.998L175.597 73.9914L174.763 73.44ZM162.553 83.23L162.158 82.3115L162.153 82.3135L162.553 83.23ZM121.303 86.64L120.624 85.9055L118.747 87.64H121.303V86.64ZM132.853 75.97H133.853V73.6848L132.174 75.2355L132.853 75.97ZM132.853 106V107H133.853V106H132.853ZM152.983 106L152.154 106.559L152.451 107H152.983V106ZM134.063 77.95V76.95H132.182L133.234 78.5092L134.063 77.95ZM161.563 77.95L162.389 77.3864L162.091 76.95H161.563V77.95ZM180.703 106V107H182.596L181.529 105.436L180.703 106ZM132.853 78.83L132.139 79.5304L133.853 81.2768V78.83H132.853ZM121.303 67.06V66.06H118.921L120.589 67.7604L121.303 67.06ZM150.233 64.64L149.557 63.9028L149.549 63.91L149.542 63.9174L150.233 64.64ZM150.233 51.44L149.542 52.1626L149.549 52.17L149.557 52.1772L150.233 51.44ZM121.303 49.02L120.589 48.3196L118.921 50.02H121.303V49.02ZM132.853 37.25H133.853V34.8032L132.139 36.5496L132.853 37.25ZM106.893 106H107.893V29H106.893H105.893V106H106.893ZM106.893 29V30H142.863V29V28H106.893V29ZM142.863 29V30C154.54 30 163.256 32.5767 169.168 37.5737L169.813 36.81L170.459 36.0463C164.051 30.63 154.799 28 142.863 28V29ZM169.813 36.81L169.168 37.5737C175.076 42.5682 178.053 49.3514 178.053 58.04H179.053H180.053C180.053 48.8352 176.87 41.4651 170.459 36.0463L169.813 36.81ZM179.053 58.04H178.053C178.053 63.8132 176.666 68.7483 173.929 72.8886L174.763 73.44L175.597 73.9914C178.581 69.4783 180.053 64.1468 180.053 58.04H179.053ZM174.763 73.44L173.933 72.882C171.193 76.9571 167.283 80.1046 162.158 82.3115L162.553 83.23L162.949 84.1485C168.383 81.8087 172.613 78.4296 175.593 73.998L174.763 73.44ZM162.553 83.23L162.153 82.3135C157.101 84.5192 151.047 85.64 143.963 85.64V86.64V87.64C151.252 87.64 157.592 86.4874 162.953 84.1465L162.553 83.23ZM143.963 86.64V85.64H121.303V86.64V87.64H143.963V86.64ZM121.303 86.64L121.982 87.3745L133.532 76.7045L132.853 75.97L132.174 75.2355L120.624 85.9055L121.303 86.64ZM132.853 75.97H131.853V106H132.853H133.853V75.97H132.853ZM132.853 106V105H106.893V106V107H132.853V106ZM152.983 106L153.812 105.441L134.892 77.3908L134.063 77.95L133.234 78.5092L152.154 106.559L152.983 106ZM134.063 77.95V78.95H161.563V77.95V76.95H134.063V77.95ZM161.563 77.95L160.737 78.5136L179.877 106.564L180.703 106L181.529 105.436L162.389 77.3864L161.563 77.95ZM180.703 106V105H152.983V106V107H180.703V106ZM132.853 78.83L133.567 78.1296L122.017 66.3596L121.303 67.06L120.589 67.7604L132.139 79.5304L132.853 78.83ZM121.303 67.06V68.06H142.313V67.06V66.06H121.303V67.06ZM142.313 67.06V68.06C146.029 68.06 148.973 67.2294 150.924 65.3626L150.233 64.64L149.542 63.9174C148.12 65.2773 145.784 66.06 142.313 66.06V67.06ZM150.233 64.64L150.909 65.3772C152.91 63.5423 153.873 61.0557 153.873 58.04H152.873H151.873C151.873 60.5977 151.076 62.511 149.557 63.9028L150.233 64.64ZM152.873 58.04H153.873C153.873 55.0243 152.91 52.5377 150.909 50.7028L150.233 51.44L149.557 52.1772C151.076 53.569 151.873 55.4823 151.873 58.04H152.873ZM150.233 51.44L150.924 50.7174C148.973 48.8506 146.029 48.02 142.313 48.02V49.02V50.02C145.784 50.02 148.12 50.8027 149.542 52.1626L150.233 51.44ZM142.313 49.02V48.02H121.303V49.02V50.02H142.313V49.02ZM121.303 49.02L122.017 49.7204L133.567 37.9504L132.853 37.25L132.139 36.5496L120.589 48.3196L121.303 49.02ZM132.853 37.25H131.853V78.83H132.853H133.853V37.25H132.853ZM204.502 106H203.502V107H204.502V106ZM204.502 49.13H205.502V48.13H204.502V49.13ZM181.952 49.13H180.952V50.13H181.952V49.13ZM181.952 29V28H180.952V29H181.952ZM253.012 29H254.012V28H253.012V29ZM253.012 49.13V50.13H254.012V49.13H253.012ZM230.462 49.13V48.13H229.462V49.13H230.462ZM230.462 106V107H231.462V106H230.462ZM204.502 106H205.502V49.13H204.502H203.502V106H204.502ZM204.502 49.13V48.13H181.952V49.13V50.13H204.502V49.13ZM181.952 49.13H182.952V29H181.952H180.952V49.13H181.952ZM181.952 29V30H253.012V29V28H181.952V29ZM253.012 29H252.012V49.13H253.012H254.012V29H253.012ZM253.012 49.13V48.13H230.462V49.13V50.13H253.012V49.13ZM230.462 49.13H229.462V106H230.462H231.462V49.13H230.462ZM230.462 106V105H204.502V106V107H230.462V106ZM259.754 106H258.754V107H259.754V106ZM259.754 29V28H258.754V29H259.754ZM285.714 29H286.714V28H285.714V29ZM285.714 106V107H286.714V106H285.714ZM259.754 106H260.754V29H259.754H258.754V106H259.754ZM259.754 29V30H285.714V29V28H259.754V29ZM285.714 29H284.714V106H285.714H286.714V29H285.714ZM285.714 106V105H259.754V106V107H285.714V106ZM308.221 105.56L308.458 104.588L308.221 105.56ZM293.371 99.84L292.457 99.4358L292.101 100.241L292.855 100.696L293.371 99.84ZM301.731 80.92L302.233 80.055L301.268 79.4951L300.817 80.5158L301.731 80.92ZM313.941 86.09L313.658 87.0491L313.668 87.0518L313.677 87.0544L313.941 86.09ZM332.971 87.52L333.177 88.4986L333.196 88.4947L333.214 88.4901L332.971 87.52ZM336.161 86.09L336.826 86.8374L336.848 86.8179L336.868 86.7971L336.161 86.09ZM334.841 80.48L334.377 81.3658L334.841 80.48ZM328.681 78.5L328.452 79.4734L328.469 79.4773L328.485 79.4806L328.681 78.5ZM320.431 76.74L320.217 77.7167L320.228 77.7193L320.24 77.7215L320.431 76.74ZM311.301 74.21L310.978 75.1564L310.985 75.1587L311.301 74.21ZM302.941 70.14L302.381 70.9684L302.392 70.9757L302.941 70.14ZM296.891 63.54L296.016 64.0237L296.022 64.0336L296.891 63.54ZM298.541 40.22L297.716 39.6548L297.714 39.6581L298.541 40.22ZM310.531 30.76L310.13 29.8441L310.125 29.8462L310.531 30.76ZM345.841 28.89L345.629 29.8672L345.841 28.89ZM359.481 33.95L360.405 34.3335L360.745 33.5143L359.972 33.0788L359.481 33.95ZM351.671 52.76L351.224 53.6544L352.184 54.1341L352.595 53.1435L351.671 52.76ZM340.561 48.47L340.3 49.4352L340.305 49.4366L340.561 48.47ZM324.281 47.7L323.994 46.7422L324.281 47.7ZM321.091 49.46L320.348 48.791L320.329 48.8126L320.311 48.8353L321.091 49.46ZM322.521 55.07L322.057 55.9558L322.074 55.9647L322.091 55.9729L322.521 55.07ZM328.571 56.94L328.37 57.9195L328.375 57.9206L328.571 56.94ZM336.931 58.59L336.74 59.5715L336.744 59.5723L336.931 58.59ZM346.061 61.01L345.738 61.9563L346.061 61.01ZM354.311 65.08L353.751 65.9084L353.762 65.9157L354.311 65.08ZM360.471 71.68L359.602 72.1736L360.471 71.68ZM358.711 94.78L357.886 94.2148L357.884 94.2181L358.711 94.78ZM346.831 104.24L347.238 105.154L347.248 105.149L346.831 104.24ZM326.921 107.76V106.76C320.545 106.76 314.391 106.035 308.458 104.588L308.221 105.56L307.984 106.532C314.079 108.018 320.392 108.76 326.921 108.76V107.76ZM308.221 105.56L308.458 104.588C302.51 103.138 297.663 101.263 293.888 98.9839L293.371 99.84L292.855 100.696C296.853 103.11 301.906 105.049 307.984 106.532L308.221 105.56ZM293.371 99.84L294.286 100.244L302.646 81.3242L301.731 80.92L300.817 80.5158L292.457 99.4358L293.371 99.84ZM301.731 80.92L301.23 81.785C304.972 83.9554 309.116 85.7088 313.658 87.0491L313.941 86.09L314.224 85.1309C309.82 83.8312 305.824 82.1379 302.233 80.055L301.731 80.92ZM313.941 86.09L313.677 87.0544C318.301 88.3222 322.79 88.96 327.141 88.96V87.96V86.96C322.986 86.96 318.676 86.3512 314.206 85.1256L313.941 86.09ZM327.141 87.96V88.96C329.661 88.96 331.684 88.8129 333.177 88.4986L332.971 87.52L332.765 86.5415C331.472 86.8137 329.609 86.96 327.141 86.96V87.96ZM332.971 87.52L333.214 88.4901C334.74 88.1086 335.988 87.5823 336.826 86.8374L336.161 86.09L335.497 85.3426C335.015 85.7711 334.136 86.1981 332.729 86.5499L332.971 87.52ZM336.161 86.09L336.868 86.7971C337.703 85.9622 338.151 84.9426 338.151 83.78H337.151H336.151C336.151 84.3774 335.939 84.8978 335.454 85.3829L336.161 86.09ZM337.151 83.78H338.151C338.151 81.9167 337.078 80.5227 335.305 79.5942L334.841 80.48L334.377 81.3658C335.685 82.0507 336.151 82.8566 336.151 83.78H337.151ZM334.841 80.48L335.305 79.5942C333.65 78.7271 331.495 78.043 328.878 77.5194L328.681 78.5L328.485 79.4806C331.001 79.9837 332.953 80.6196 334.377 81.3658L334.841 80.48ZM328.681 78.5L328.91 77.5266C326.403 76.9365 323.64 76.3472 320.623 75.7585L320.431 76.74L320.24 77.7215C323.236 78.3062 325.974 78.8902 328.452 79.4734L328.681 78.5ZM320.431 76.74L320.646 75.7633C317.675 75.1112 314.666 74.2774 311.618 73.2613L311.301 74.21L310.985 75.1587C314.097 76.1959 317.174 77.0488 320.217 77.7167L320.431 76.74ZM311.301 74.21L311.625 73.2636C308.695 72.2633 305.984 70.9431 303.491 69.3043L302.941 70.14L302.392 70.9757C305.032 72.7102 307.895 74.1034 310.978 75.1563L311.301 74.21ZM302.941 70.14L303.502 69.3117C301.141 67.7145 299.228 65.6309 297.761 63.0464L296.891 63.54L296.022 64.0336C297.635 66.8758 299.756 69.1922 302.381 70.9683L302.941 70.14ZM296.891 63.54L297.767 63.0563C296.329 60.4546 295.581 57.1852 295.581 53.2H294.581H293.581C293.581 57.4281 294.374 61.0521 296.016 64.0237L296.891 63.54ZM294.581 53.2H295.581C295.581 48.6306 296.843 44.5002 299.369 40.7819L298.541 40.22L297.714 39.6581C294.96 43.7131 293.581 48.2361 293.581 53.2H294.581ZM298.541 40.22L299.366 40.7852C301.955 37.0065 305.792 33.9607 310.938 31.6738L310.531 30.76L310.125 29.8462C304.711 32.2526 300.554 35.5135 297.716 39.6548L298.541 40.22ZM310.531 30.76L310.933 31.6759C316.123 29.4007 322.613 28.24 330.441 28.24V27.24V26.24C322.429 26.24 315.646 27.426 310.13 29.8441L310.531 30.76ZM330.441 27.24V28.24C335.577 28.24 340.639 28.7824 345.629 29.8672L345.841 28.89L346.054 27.9128C340.924 26.7976 335.719 26.24 330.441 26.24V27.24ZM345.841 28.89L345.629 29.8672C350.603 30.9484 355.054 32.6023 358.99 34.8211L359.481 33.95L359.972 33.0788C355.842 30.751 351.2 29.0316 346.054 27.9128L345.841 28.89ZM359.481 33.95L358.558 33.5665L350.748 52.3765L351.671 52.76L352.595 53.1435L360.405 34.3335L359.481 33.95ZM351.671 52.76L352.119 51.8656C348.253 49.9328 344.486 48.4766 340.818 47.5034L340.561 48.47L340.305 49.4366C343.824 50.3701 347.463 51.7739 351.224 53.6544L351.671 52.76ZM340.561 48.47L340.823 47.5048C337.224 46.5302 333.69 46.04 330.221 46.04V47.04V48.04C333.5 48.04 336.858 48.5031 340.3 49.4352L340.561 48.47ZM330.221 47.04V46.04C327.684 46.04 325.594 46.2622 323.994 46.7422L324.281 47.7L324.569 48.6578C325.902 48.2577 327.772 48.04 330.221 48.04V47.04ZM324.281 47.7L323.994 46.7422C322.441 47.2082 321.181 47.8659 320.348 48.791L321.091 49.46L321.835 50.129C322.322 49.5874 323.189 49.0718 324.569 48.6578L324.281 47.7ZM321.091 49.46L320.311 48.8353C319.592 49.7332 319.211 50.7571 319.211 51.88H320.211H321.211C321.211 51.2429 321.417 50.6535 321.872 50.0847L321.091 49.46ZM320.211 51.88H319.211C319.211 53.6918 320.31 55.0403 322.057 55.9558L322.521 55.07L322.985 54.1842C321.653 53.4864 321.211 52.7082 321.211 51.88H320.211ZM322.521 55.07L322.091 55.9729C323.73 56.7533 325.832 57.397 328.37 57.9195L328.571 56.94L328.773 55.9605C326.324 55.4563 324.392 54.8534 322.951 54.1671L322.521 55.07ZM328.571 56.94L328.375 57.9206C330.944 58.4343 333.732 58.9846 336.74 59.5715L336.931 58.59L337.123 57.6085C334.118 57.0221 331.332 56.4724 328.768 55.9594L328.571 56.94ZM336.931 58.59L336.744 59.5723C339.778 60.1501 342.775 60.9447 345.738 61.9563L346.061 61.01L346.385 60.0636C343.334 59.022 340.245 58.2032 337.119 57.6077L336.931 58.59ZM346.061 61.01L345.738 61.9563C348.666 62.9559 351.335 64.274 353.751 65.9083L354.311 65.08L354.872 64.2517C352.301 62.5127 349.471 61.1174 346.385 60.0636L346.061 61.01ZM354.311 65.08L353.762 65.9157C356.194 67.5139 358.139 69.5958 359.602 72.1736L360.471 71.68L361.341 71.1864C359.724 68.3375 357.562 66.0194 354.861 64.2443L354.311 65.08ZM360.471 71.68L359.602 72.1736C361.035 74.6986 361.781 77.8903 361.781 81.8H362.781H363.781C363.781 77.6431 362.988 74.088 361.341 71.1864L360.471 71.68ZM362.781 81.8H361.781C361.781 86.2867 360.489 90.4172 357.886 94.2148L358.711 94.78L359.536 95.3452C362.361 91.2228 363.781 86.6999 363.781 81.8H362.781ZM358.711 94.78L357.884 94.2181C355.368 97.9218 351.568 100.969 346.415 103.331L346.831 104.24L347.248 105.149C352.655 102.671 356.774 99.4116 359.539 95.3419L358.711 94.78ZM346.831 104.24L346.425 103.326C341.312 105.599 334.825 106.76 326.921 106.76V107.76V108.76C335.004 108.76 341.791 107.575 347.238 105.154L346.831 104.24ZM386.152 106H385.152V107H386.152V106ZM386.152 49.13H387.152V48.13H386.152V49.13ZM363.602 49.13H362.602V50.13H363.602V49.13ZM363.602 29V28H362.602V29H363.602ZM434.662 29H435.662V28H434.662V29ZM434.662 49.13V50.13H435.662V49.13H434.662ZM412.112 49.13V48.13H411.112V49.13H412.112ZM412.112 106V107H413.112V106H412.112ZM386.152 106H387.152V49.13H386.152H385.152V106H386.152ZM386.152 49.13V48.13H363.602V49.13V50.13H386.152V49.13ZM363.602 49.13H364.602V29H363.602H362.602V49.13H363.602ZM363.602 29V30H434.662V29V28H363.602V29ZM434.662 29H433.662V49.13H434.662H435.662V29H434.662ZM434.662 49.13V48.13H412.112V49.13V50.13H434.662V49.13ZM412.112 49.13H411.112V106H412.112H413.112V49.13H412.112ZM412.112 106V105H386.152V106V107H412.112V106ZM451.415 105.56L451.652 104.588L451.415 105.56ZM436.565 99.84L435.65 99.4358L435.294 100.241L436.048 100.696L436.565 99.84ZM444.925 80.92L445.426 80.055L444.461 79.4951L444.01 80.5158L444.925 80.92ZM457.135 86.09L456.852 87.0491L456.861 87.0518L456.87 87.0544L457.135 86.09ZM476.165 87.52L476.371 88.4986L476.389 88.4947L476.407 88.4901L476.165 87.52ZM479.355 86.09L480.019 86.8374L480.041 86.8179L480.062 86.7971L479.355 86.09ZM478.035 80.48L477.571 81.3658L478.035 80.48ZM471.875 78.5L471.646 79.4734L471.662 79.4773L471.679 79.4806L471.875 78.5ZM463.625 76.74L463.41 77.7167L463.422 77.7193L463.433 77.7215L463.625 76.74ZM454.495 74.21L454.172 75.1564L454.179 75.1587L454.495 74.21ZM446.135 70.14L445.574 70.9684L445.586 70.9757L446.135 70.14ZM440.085 63.54L439.209 64.0237L439.215 64.0336L440.085 63.54ZM441.735 40.22L440.91 39.6548L440.908 39.6581L441.735 40.22ZM453.725 30.76L453.323 29.8441L453.319 29.8462L453.725 30.76ZM489.035 28.89L488.822 29.8672L489.035 28.89ZM502.675 33.95L503.598 34.3335L503.938 33.5143L503.166 33.0788L502.675 33.95ZM494.865 52.76L494.418 53.6544L495.377 54.1341L495.788 53.1435L494.865 52.76ZM483.755 48.47L483.493 49.4352L483.498 49.4366L483.755 48.47ZM467.475 47.7L467.187 46.7422L467.475 47.7ZM464.285 49.46L463.541 48.791L463.522 48.8126L463.504 48.8353L464.285 49.46ZM465.715 55.07L465.251 55.9558L465.268 55.9647L465.285 55.9729L465.715 55.07ZM471.765 56.94L471.563 57.9195L471.569 57.9206L471.765 56.94ZM480.125 58.59L479.933 59.5715L479.938 59.5723L480.125 58.59ZM489.255 61.01L488.932 61.9563L489.255 61.01ZM497.505 65.08L496.944 65.9084L496.956 65.9157L497.505 65.08ZM503.665 71.68L502.795 72.1736L503.665 71.68ZM501.905 94.78L501.08 94.2148L501.078 94.2181L501.905 94.78ZM490.025 104.24L490.431 105.154L490.441 105.149L490.025 104.24ZM470.115 107.76V106.76C463.738 106.76 457.584 106.035 451.652 104.588L451.415 105.56L451.178 106.532C457.272 108.018 463.585 108.76 470.115 108.76V107.76ZM451.415 105.56L451.652 104.588C445.704 103.138 440.856 101.263 437.082 98.9839L436.565 99.84L436.048 100.696C440.047 103.11 445.099 105.049 451.178 106.532L451.415 105.56ZM436.565 99.84L437.479 100.244L445.839 81.3242L444.925 80.92L444.01 80.5158L435.65 99.4358L436.565 99.84ZM444.925 80.92L444.423 81.785C448.165 83.9554 452.31 85.7088 456.852 87.0491L457.135 86.09L457.418 85.1309C453.013 83.8312 449.018 82.1379 445.426 80.055L444.925 80.92ZM457.135 86.09L456.87 87.0544C461.494 88.3222 465.983 88.96 470.335 88.96V87.96V86.96C466.18 86.96 461.869 86.3512 457.399 85.1256L457.135 86.09ZM470.335 87.96V88.96C472.854 88.96 474.878 88.8129 476.371 88.4986L476.165 87.52L475.959 86.5415C474.665 86.8137 472.802 86.96 470.335 86.96V87.96ZM476.165 87.52L476.407 88.4901C477.934 88.1086 479.181 87.5823 480.019 86.8374L479.355 86.09L478.69 85.3426C478.208 85.7711 477.329 86.1981 475.922 86.5499L476.165 87.52ZM479.355 86.09L480.062 86.7971C480.897 85.9622 481.345 84.9426 481.345 83.78H480.345H479.345C479.345 84.3774 479.133 84.8978 478.648 85.3829L479.355 86.09ZM480.345 83.78H481.345C481.345 81.9167 480.271 80.5227 478.499 79.5942L478.035 80.48L477.571 81.3658C478.878 82.0507 479.345 82.8566 479.345 83.78H480.345ZM478.035 80.48L478.499 79.5942C476.843 78.7271 474.689 78.043 472.071 77.5194L471.875 78.5L471.679 79.4806C474.194 79.9837 476.146 80.6196 477.571 81.3658L478.035 80.48ZM471.875 78.5L472.104 77.5266C469.596 76.9365 466.833 76.3472 463.816 75.7585L463.625 76.74L463.433 77.7215C466.43 78.3062 469.167 78.8902 471.646 79.4734L471.875 78.5ZM463.625 76.74L463.839 75.7633C460.869 75.1112 457.859 74.2774 454.811 73.2613L454.495 74.21L454.179 75.1587C457.29 76.1959 460.367 77.0488 463.41 77.7167L463.625 76.74ZM454.495 74.21L454.818 73.2636C451.888 72.2633 449.178 70.9431 446.684 69.3043L446.135 70.14L445.586 70.9757C448.225 72.7102 451.088 74.1034 454.172 75.1563L454.495 74.21ZM446.135 70.14L446.695 69.3117C444.334 67.7145 442.421 65.6309 440.954 63.0464L440.085 63.54L439.215 64.0336C440.828 66.8758 442.949 69.1922 445.574 70.9683L446.135 70.14ZM440.085 63.54L440.96 63.0563C439.522 60.4546 438.775 57.1852 438.775 53.2H437.775H436.775C436.775 57.4281 437.567 61.0521 439.21 64.0237L440.085 63.54ZM437.775 53.2H438.775C438.775 48.6306 440.036 44.5002 442.562 40.7819L441.735 40.22L440.908 39.6581C438.153 43.7131 436.775 48.2361 436.775 53.2H437.775ZM441.735 40.22L442.56 40.7852C445.149 37.0065 448.985 33.9607 454.131 31.6738L453.725 30.76L453.319 29.8462C447.904 32.2526 443.747 35.5135 440.91 39.6548L441.735 40.22ZM453.725 30.76L454.126 31.6759C459.317 29.4007 465.807 28.24 473.635 28.24V27.24V26.24C465.623 26.24 458.84 27.426 453.323 29.8441L453.725 30.76ZM473.635 27.24V28.24C478.77 28.24 483.833 28.7824 488.822 29.8672L489.035 28.89L489.247 27.9128C484.117 26.7976 478.912 26.24 473.635 26.24V27.24ZM489.035 28.89L488.822 29.8672C493.796 30.9484 498.247 32.6023 502.184 34.8211L502.675 33.95L503.166 33.0788C499.036 30.751 494.393 29.0316 489.247 27.9128L489.035 28.89ZM502.675 33.95L501.751 33.5665L493.941 52.3765L494.865 52.76L495.788 53.1435L503.598 34.3335L502.675 33.95ZM494.865 52.76L495.312 51.8656C491.446 49.9328 487.679 48.4766 484.011 47.5034L483.755 48.47L483.498 49.4366C487.017 50.3701 490.656 51.7739 494.418 53.6544L494.865 52.76ZM483.755 48.47L484.016 47.5048C480.418 46.5302 476.883 46.04 473.415 46.04V47.04V48.04C476.693 48.04 480.052 48.5031 483.493 49.4352L483.755 48.47ZM473.415 47.04V46.04C470.877 46.04 468.787 46.2622 467.187 46.7422L467.475 47.7L467.762 48.6578C469.096 48.2577 470.966 48.04 473.415 48.04V47.04ZM467.475 47.7L467.187 46.7422C465.634 47.2082 464.374 47.8659 463.541 48.791L464.285 49.46L465.028 50.129C465.515 49.5874 466.382 49.0718 467.762 48.6578L467.475 47.7ZM464.285 49.46L463.504 48.8353C462.786 49.7332 462.405 50.7571 462.405 51.88H463.405H464.405C464.405 51.2429 464.611 50.6535 465.066 50.0847L464.285 49.46ZM463.405 51.88H462.405C462.405 53.6918 463.503 55.0403 465.251 55.9558L465.715 55.07L466.179 54.1842C464.847 53.4864 464.405 52.7082 464.405 51.88H463.405ZM465.715 55.07L465.285 55.9729C466.924 56.7533 469.026 57.397 471.563 57.9195L471.765 56.94L471.966 55.9605C469.517 55.4563 467.586 54.8534 466.145 54.1671L465.715 55.07ZM471.765 56.94L471.569 57.9206C474.137 58.4343 476.925 58.9846 479.933 59.5715L480.125 58.59L480.316 57.6085C477.311 57.0221 474.526 56.4724 471.961 55.9594L471.765 56.94ZM480.125 58.59L479.938 59.5723C482.971 60.1501 485.969 60.9447 488.932 61.9563L489.255 61.01L489.578 60.0636C486.527 59.022 483.439 58.2032 480.312 57.6077L480.125 58.59ZM489.255 61.01L488.932 61.9563C491.859 62.9559 494.529 64.274 496.944 65.9083L497.505 65.08L498.065 64.2517C495.494 62.5127 492.664 61.1174 489.578 60.0636L489.255 61.01ZM497.505 65.08L496.956 65.9157C499.388 67.5139 501.332 69.5958 502.795 72.1736L503.665 71.68L504.534 71.1864C502.918 68.3375 500.755 66.0194 498.054 64.2443L497.505 65.08ZM503.665 71.68L502.795 72.1736C504.228 74.6986 504.975 77.8903 504.975 81.8H505.975H506.975C506.975 77.6431 506.181 74.088 504.534 71.1864L503.665 71.68ZM505.975 81.8H504.975C504.975 86.2867 503.682 90.4172 501.08 94.2148L501.905 94.78L502.73 95.3452C505.554 91.2228 506.975 86.6999 506.975 81.8H505.975ZM501.905 94.78L501.078 94.2181C498.562 97.9218 494.761 100.969 489.608 103.331L490.025 104.24L490.441 105.149C495.848 102.671 499.968 99.4116 502.732 95.3419L501.905 94.78ZM490.025 104.24L489.619 103.326C484.506 105.599 478.018 106.76 470.115 106.76V107.76V108.76C478.198 108.76 484.984 107.575 490.431 105.154L490.025 104.24Z" fill="white" mask="url(#path-1-outside-1_204_43)"/>
<mask id="path-3-outside-2_204_43" maskUnits="userSpaceOnUse" x="8" y="83" width="499" height="83" fill="black">
<rect fill="white" x="8" y="83" width="499" height="83"/>
<path d="M9.91 163L43.57 86H69.09L102.75 163H75.91L51.05 98.32H61.17L36.31 163H9.91ZM29.93 149.58L36.53 130.88H71.95L78.55 149.58H29.93ZM106.893 163V86H142.863C154.67 86 163.653 88.6033 169.813 93.81C175.973 99.0167 179.053 106.093 179.053 115.04C179.053 120.98 177.623 126.113 174.763 130.44C171.903 134.693 167.833 137.957 162.553 140.23C157.346 142.503 151.15 143.64 143.963 143.64H121.303L132.853 132.97V163H106.893ZM152.983 163L134.063 134.95H161.563L180.703 163H152.983ZM132.853 135.83L121.303 124.06H142.313C145.906 124.06 148.546 123.253 150.233 121.64C151.993 120.027 152.873 117.827 152.873 115.04C152.873 112.253 151.993 110.053 150.233 108.44C148.546 106.827 145.906 106.02 142.313 106.02H121.303L132.853 94.25V135.83ZM204.502 163V106.13H181.952V86H253.012V106.13H230.462V163H204.502ZM259.754 163V86H285.714V163H259.754ZM326.921 164.76C320.468 164.76 314.235 164.027 308.221 162.56C302.208 161.093 297.258 159.187 293.371 156.84L301.731 137.92C305.398 140.047 309.468 141.77 313.941 143.09C318.488 144.337 322.888 144.96 327.141 144.96C329.635 144.96 331.578 144.813 332.971 144.52C334.438 144.153 335.501 143.677 336.161 143.09C336.821 142.43 337.151 141.66 337.151 140.78C337.151 139.387 336.381 138.287 334.841 137.48C333.301 136.673 331.248 136.013 328.681 135.5C326.188 134.913 323.438 134.327 320.431 133.74C317.425 133.08 314.381 132.237 311.301 131.21C308.295 130.183 305.508 128.827 302.941 127.14C300.448 125.453 298.431 123.253 296.891 120.54C295.351 117.753 294.581 114.307 294.581 110.2C294.581 105.433 295.901 101.107 298.541 97.22C301.255 93.26 305.251 90.1067 310.531 87.76C315.885 85.4133 322.521 84.24 330.441 84.24C335.648 84.24 340.781 84.79 345.841 85.89C350.901 86.99 355.448 88.6767 359.481 90.95L351.671 109.76C347.858 107.853 344.155 106.423 340.561 105.47C337.041 104.517 333.595 104.04 330.221 104.04C327.728 104.04 325.748 104.26 324.281 104.7C322.815 105.14 321.751 105.727 321.091 106.46C320.505 107.193 320.211 108 320.211 108.88C320.211 110.2 320.981 111.263 322.521 112.07C324.061 112.803 326.078 113.427 328.571 113.94C331.138 114.453 333.925 115.003 336.931 115.59C340.011 116.177 343.055 116.983 346.061 118.01C349.068 119.037 351.818 120.393 354.311 122.08C356.878 123.767 358.931 125.967 360.471 128.68C362.011 131.393 362.781 134.767 362.781 138.8C362.781 143.493 361.425 147.82 358.711 151.78C356.071 155.667 352.111 158.82 346.831 161.24C341.551 163.587 334.915 164.76 326.921 164.76ZM386.152 163V106.13H363.602V86H434.662V106.13H412.112V163H386.152ZM470.115 164.76C463.661 164.76 457.428 164.027 451.415 162.56C445.401 161.093 440.451 159.187 436.565 156.84L444.925 137.92C448.591 140.047 452.661 141.77 457.135 143.09C461.681 144.337 466.081 144.96 470.335 144.96C472.828 144.96 474.771 144.813 476.165 144.52C477.631 144.153 478.695 143.677 479.355 143.09C480.015 142.43 480.345 141.66 480.345 140.78C480.345 139.387 479.575 138.287 478.035 137.48C476.495 136.673 474.441 136.013 471.875 135.5C469.381 134.913 466.631 134.327 463.625 133.74C460.618 133.08 457.575 132.237 454.495 131.21C451.488 130.183 448.701 128.827 446.135 127.14C443.641 125.453 441.625 123.253 440.085 120.54C438.545 117.753 437.775 114.307 437.775 110.2C437.775 105.433 439.095 101.107 441.735 97.22C444.448 93.26 448.445 90.1067 453.725 87.76C459.078 85.4133 465.715 84.24 473.635 84.24C478.841 84.24 483.975 84.79 489.035 85.89C494.095 86.99 498.641 88.6767 502.675 90.95L494.865 109.76C491.051 107.853 487.348 106.423 483.755 105.47C480.235 104.517 476.788 104.04 473.415 104.04C470.921 104.04 468.941 104.26 467.475 104.7C466.008 105.14 464.945 105.727 464.285 106.46C463.698 107.193 463.405 108 463.405 108.88C463.405 110.2 464.175 111.263 465.715 112.07C467.255 112.803 469.271 113.427 471.765 113.94C474.331 114.453 477.118 115.003 480.125 115.59C483.205 116.177 486.248 116.983 489.255 118.01C492.261 119.037 495.011 120.393 497.505 122.08C500.071 123.767 502.125 125.967 503.665 128.68C505.205 131.393 505.975 134.767 505.975 138.8C505.975 143.493 504.618 147.82 501.905 151.78C499.265 155.667 495.305 158.82 490.025 161.24C484.745 163.587 478.108 164.76 470.115 164.76Z"/>
</mask>
<path d="M9.91 163L8.99372 162.599L8.38148 164H9.91V163ZM43.57 86V85H42.9158L42.6537 85.5995L43.57 86ZM69.09 86L70.0063 85.5995L69.7442 85H69.09V86ZM102.75 163V164H104.279L103.666 162.599L102.75 163ZM75.91 163L74.9766 163.359L75.223 164H75.91V163ZM51.05 98.32V97.32H49.5943L50.1166 98.6788L51.05 98.32ZM61.17 98.32L62.1034 98.6788L62.6257 97.32H61.17V98.32ZM36.31 163V164H36.997L37.2434 163.359L36.31 163ZM29.93 149.58L28.987 149.247L28.5166 150.58H29.93V149.58ZM36.53 130.88V129.88H35.8225L35.587 130.547L36.53 130.88ZM71.95 130.88L72.893 130.547L72.6575 129.88H71.95V130.88ZM78.55 149.58V150.58H79.9634L79.493 149.247L78.55 149.58ZM9.91 163L10.8263 163.401L44.4863 86.4005L43.57 86L42.6537 85.5995L8.99372 162.599L9.91 163ZM43.57 86V87H69.09V86V85H43.57V86ZM69.09 86L68.1737 86.4005L101.834 163.401L102.75 163L103.666 162.599L70.0063 85.5995L69.09 86ZM102.75 163V162H75.91V163V164H102.75V163ZM75.91 163L76.8434 162.641L51.9834 97.9612L51.05 98.32L50.1166 98.6788L74.9766 163.359L75.91 163ZM51.05 98.32V99.32H61.17V98.32V97.32H51.05V98.32ZM61.17 98.32L60.2366 97.9612L35.3766 162.641L36.31 163L37.2434 163.359L62.1034 98.6788L61.17 98.32ZM36.31 163V162H9.91V163V164H36.31V163ZM29.93 149.58L30.873 149.913L37.473 131.213L36.53 130.88L35.587 130.547L28.987 149.247L29.93 149.58ZM36.53 130.88V131.88H71.95V130.88V129.88H36.53V130.88ZM71.95 130.88L71.007 131.213L77.607 149.913L78.55 149.58L79.493 149.247L72.893 130.547L71.95 130.88ZM78.55 149.58V148.58H29.93V149.58V150.58H78.55V149.58ZM106.893 163H105.893V164H106.893V163ZM106.893 86V85H105.893V86H106.893ZM169.813 93.81L169.168 94.5737L169.813 93.81ZM174.763 130.44L175.593 130.998L175.597 130.991L174.763 130.44ZM162.553 140.23L162.158 139.312L162.153 139.314L162.553 140.23ZM121.303 143.64L120.624 142.905L118.747 144.64H121.303V143.64ZM132.853 132.97H133.853V130.685L132.174 132.235L132.853 132.97ZM132.853 163V164H133.853V163H132.853ZM152.983 163L152.154 163.559L152.451 164H152.983V163ZM134.063 134.95V133.95H132.182L133.234 135.509L134.063 134.95ZM161.563 134.95L162.389 134.386L162.091 133.95H161.563V134.95ZM180.703 163V164H182.596L181.529 162.436L180.703 163ZM132.853 135.83L132.139 136.53L133.853 138.277V135.83H132.853ZM121.303 124.06V123.06H118.921L120.589 124.76L121.303 124.06ZM150.233 121.64L149.557 120.903L149.549 120.91L149.542 120.917L150.233 121.64ZM150.233 108.44L149.542 109.163L149.549 109.17L149.557 109.177L150.233 108.44ZM121.303 106.02L120.589 105.32L118.921 107.02H121.303V106.02ZM132.853 94.25H133.853V91.8032L132.139 93.5496L132.853 94.25ZM106.893 163H107.893V86H106.893H105.893V163H106.893ZM106.893 86V87H142.863V86V85H106.893V86ZM142.863 86V87C154.54 87 163.256 89.5767 169.168 94.5737L169.813 93.81L170.459 93.0463C164.051 87.63 154.799 85 142.863 85V86ZM169.813 93.81L169.168 94.5737C175.076 99.5682 178.053 106.351 178.053 115.04H179.053H180.053C180.053 105.835 176.87 98.4651 170.459 93.0463L169.813 93.81ZM179.053 115.04H178.053C178.053 120.813 176.666 125.748 173.929 129.889L174.763 130.44L175.597 130.991C178.581 126.478 180.053 121.147 180.053 115.04H179.053ZM174.763 130.44L173.933 129.882C171.193 133.957 167.283 137.105 162.158 139.312L162.553 140.23L162.949 141.148C168.383 138.809 172.613 135.43 175.593 130.998L174.763 130.44ZM162.553 140.23L162.153 139.314C157.101 141.519 151.047 142.64 143.963 142.64V143.64V144.64C151.252 144.64 157.592 143.487 162.953 141.146L162.553 140.23ZM143.963 143.64V142.64H121.303V143.64V144.64H143.963V143.64ZM121.303 143.64L121.982 144.375L133.532 133.705L132.853 132.97L132.174 132.235L120.624 142.905L121.303 143.64ZM132.853 132.97H131.853V163H132.853H133.853V132.97H132.853ZM132.853 163V162H106.893V163V164H132.853V163ZM152.983 163L153.812 162.441L134.892 134.391L134.063 134.95L133.234 135.509L152.154 163.559L152.983 163ZM134.063 134.95V135.95H161.563V134.95V133.95H134.063V134.95ZM161.563 134.95L160.737 135.514L179.877 163.564L180.703 163L181.529 162.436L162.389 134.386L161.563 134.95ZM180.703 163V162H152.983V163V164H180.703V163ZM132.853 135.83L133.567 135.13L122.017 123.36L121.303 124.06L120.589 124.76L132.139 136.53L132.853 135.83ZM121.303 124.06V125.06H142.313V124.06V123.06H121.303V124.06ZM142.313 124.06V125.06C146.029 125.06 148.973 124.229 150.924 122.363L150.233 121.64L149.542 120.917C148.12 122.277 145.784 123.06 142.313 123.06V124.06ZM150.233 121.64L150.909 122.377C152.91 120.542 153.873 118.056 153.873 115.04H152.873H151.873C151.873 117.598 151.076 119.511 149.557 120.903L150.233 121.64ZM152.873 115.04H153.873C153.873 112.024 152.91 109.538 150.909 107.703L150.233 108.44L149.557 109.177C151.076 110.569 151.873 112.482 151.873 115.04H152.873ZM150.233 108.44L150.924 107.717C148.973 105.851 146.029 105.02 142.313 105.02V106.02V107.02C145.784 107.02 148.12 107.803 149.542 109.163L150.233 108.44ZM142.313 106.02V105.02H121.303V106.02V107.02H142.313V106.02ZM121.303 106.02L122.017 106.72L133.567 94.9504L132.853 94.25L132.139 93.5496L120.589 105.32L121.303 106.02ZM132.853 94.25H131.853V135.83H132.853H133.853V94.25H132.853ZM204.502 163H203.502V164H204.502V163ZM204.502 106.13H205.502V105.13H204.502V106.13ZM181.952 106.13H180.952V107.13H181.952V106.13ZM181.952 86V85H180.952V86H181.952ZM253.012 86H254.012V85H253.012V86ZM253.012 106.13V107.13H254.012V106.13H253.012ZM230.462 106.13V105.13H229.462V106.13H230.462ZM230.462 163V164H231.462V163H230.462ZM204.502 163H205.502V106.13H204.502H203.502V163H204.502ZM204.502 106.13V105.13H181.952V106.13V107.13H204.502V106.13ZM181.952 106.13H182.952V86H181.952H180.952V106.13H181.952ZM181.952 86V87H253.012V86V85H181.952V86ZM253.012 86H252.012V106.13H253.012H254.012V86H253.012ZM253.012 106.13V105.13H230.462V106.13V107.13H253.012V106.13ZM230.462 106.13H229.462V163H230.462H231.462V106.13H230.462ZM230.462 163V162H204.502V163V164H230.462V163ZM259.754 163H258.754V164H259.754V163ZM259.754 86V85H258.754V86H259.754ZM285.714 86H286.714V85H285.714V86ZM285.714 163V164H286.714V163H285.714ZM259.754 163H260.754V86H259.754H258.754V163H259.754ZM259.754 86V87H285.714V86V85H259.754V86ZM285.714 86H284.714V163H285.714H286.714V86H285.714ZM285.714 163V162H259.754V163V164H285.714V163ZM308.221 162.56L308.458 161.588L308.221 162.56ZM293.371 156.84L292.457 156.436L292.101 157.241L292.855 157.696L293.371 156.84ZM301.731 137.92L302.233 137.055L301.268 136.495L300.817 137.516L301.731 137.92ZM313.941 143.09L313.658 144.049L313.668 144.052L313.677 144.054L313.941 143.09ZM332.971 144.52L333.177 145.499L333.196 145.495L333.214 145.49L332.971 144.52ZM336.161 143.09L336.826 143.837L336.848 143.818L336.868 143.797L336.161 143.09ZM334.841 137.48L334.377 138.366L334.841 137.48ZM328.681 135.5L328.452 136.473L328.469 136.477L328.485 136.481L328.681 135.5ZM320.431 133.74L320.217 134.717L320.228 134.719L320.24 134.721L320.431 133.74ZM311.301 131.21L310.978 132.156L310.985 132.159L311.301 131.21ZM302.941 127.14L302.381 127.968L302.392 127.976L302.941 127.14ZM296.891 120.54L296.016 121.024L296.022 121.034L296.891 120.54ZM298.541 97.22L297.716 96.6548L297.714 96.6581L298.541 97.22ZM310.531 87.76L310.13 86.8441L310.125 86.8462L310.531 87.76ZM345.841 85.89L345.629 86.8672L345.841 85.89ZM359.481 90.95L360.405 91.3335L360.745 90.5143L359.972 90.0788L359.481 90.95ZM351.671 109.76L351.224 110.654L352.184 111.134L352.595 110.143L351.671 109.76ZM340.561 105.47L340.3 106.435L340.305 106.437L340.561 105.47ZM324.281 104.7L323.994 103.742L324.281 104.7ZM321.091 106.46L320.348 105.791L320.329 105.813L320.311 105.835L321.091 106.46ZM322.521 112.07L322.057 112.956L322.074 112.965L322.091 112.973L322.521 112.07ZM328.571 113.94L328.37 114.919L328.375 114.921L328.571 113.94ZM336.931 115.59L336.74 116.571L336.744 116.572L336.931 115.59ZM346.061 118.01L345.738 118.956L346.061 118.01ZM354.311 122.08L353.751 122.908L353.762 122.916L354.311 122.08ZM360.471 128.68L359.602 129.174L360.471 128.68ZM358.711 151.78L357.886 151.215L357.884 151.218L358.711 151.78ZM346.831 161.24L347.238 162.154L347.248 162.149L346.831 161.24ZM326.921 164.76V163.76C320.545 163.76 314.391 163.035 308.458 161.588L308.221 162.56L307.984 163.532C314.079 165.018 320.392 165.76 326.921 165.76V164.76ZM308.221 162.56L308.458 161.588C302.51 160.138 297.663 158.263 293.888 155.984L293.371 156.84L292.855 157.696C296.853 160.11 301.906 162.049 307.984 163.532L308.221 162.56ZM293.371 156.84L294.286 157.244L302.646 138.324L301.731 137.92L300.817 137.516L292.457 156.436L293.371 156.84ZM301.731 137.92L301.23 138.785C304.972 140.955 309.116 142.709 313.658 144.049L313.941 143.09L314.224 142.131C309.82 140.831 305.824 139.138 302.233 137.055L301.731 137.92ZM313.941 143.09L313.677 144.054C318.301 145.322 322.79 145.96 327.141 145.96V144.96V143.96C322.986 143.96 318.676 143.351 314.206 142.126L313.941 143.09ZM327.141 144.96V145.96C329.661 145.96 331.684 145.813 333.177 145.499L332.971 144.52L332.765 143.541C331.472 143.814 329.609 143.96 327.141 143.96V144.96ZM332.971 144.52L333.214 145.49C334.74 145.109 335.988 144.582 336.826 143.837L336.161 143.09L335.497 142.343C335.015 142.771 334.136 143.198 332.729 143.55L332.971 144.52ZM336.161 143.09L336.868 143.797C337.703 142.962 338.151 141.943 338.151 140.78H337.151H336.151C336.151 141.377 335.939 141.898 335.454 142.383L336.161 143.09ZM337.151 140.78H338.151C338.151 138.917 337.078 137.523 335.305 136.594L334.841 137.48L334.377 138.366C335.685 139.051 336.151 139.857 336.151 140.78H337.151ZM334.841 137.48L335.305 136.594C333.65 135.727 331.495 135.043 328.878 134.519L328.681 135.5L328.485 136.481C331.001 136.984 332.953 137.62 334.377 138.366L334.841 137.48ZM328.681 135.5L328.91 134.527C326.403 133.936 323.64 133.347 320.623 132.759L320.431 133.74L320.24 134.721C323.236 135.306 325.974 135.89 328.452 136.473L328.681 135.5ZM320.431 133.74L320.646 132.763C317.675 132.111 314.666 131.277 311.618 130.261L311.301 131.21L310.985 132.159C314.097 133.196 317.174 134.049 320.217 134.717L320.431 133.74ZM311.301 131.21L311.625 130.264C308.695 129.263 305.984 127.943 303.491 126.304L302.941 127.14L302.392 127.976C305.032 129.71 307.895 131.103 310.978 132.156L311.301 131.21ZM302.941 127.14L303.502 126.312C301.141 124.714 299.228 122.631 297.761 120.046L296.891 120.54L296.022 121.034C297.635 123.876 299.756 126.192 302.381 127.968L302.941 127.14ZM296.891 120.54L297.767 120.056C296.329 117.455 295.581 114.185 295.581 110.2H294.581H293.581C293.581 114.428 294.374 118.052 296.016 121.024L296.891 120.54ZM294.581 110.2H295.581C295.581 105.631 296.843 101.5 299.369 97.7819L298.541 97.22L297.714 96.6581C294.96 100.713 293.581 105.236 293.581 110.2H294.581ZM298.541 97.22L299.366 97.7852C301.955 94.0065 305.792 90.9607 310.938 88.6738L310.531 87.76L310.125 86.8462C304.711 89.2526 300.554 92.5135 297.716 96.6548L298.541 97.22ZM310.531 87.76L310.933 88.6759C316.123 86.4007 322.613 85.24 330.441 85.24V84.24V83.24C322.429 83.24 315.646 84.426 310.13 86.8441L310.531 87.76ZM330.441 84.24V85.24C335.577 85.24 340.639 85.7824 345.629 86.8672L345.841 85.89L346.054 84.9128C340.924 83.7976 335.719 83.24 330.441 83.24V84.24ZM345.841 85.89L345.629 86.8672C350.603 87.9484 355.054 89.6023 358.99 91.8211L359.481 90.95L359.972 90.0788C355.842 87.751 351.2 86.0316 346.054 84.9128L345.841 85.89ZM359.481 90.95L358.558 90.5665L350.748 109.377L351.671 109.76L352.595 110.143L360.405 91.3335L359.481 90.95ZM351.671 109.76L352.119 108.866C348.253 106.933 344.486 105.477 340.818 104.503L340.561 105.47L340.305 106.437C343.824 107.37 347.463 108.774 351.224 110.654L351.671 109.76ZM340.561 105.47L340.823 104.505C337.224 103.53 333.69 103.04 330.221 103.04V104.04V105.04C333.5 105.04 336.858 105.503 340.3 106.435L340.561 105.47ZM330.221 104.04V103.04C327.684 103.04 325.594 103.262 323.994 103.742L324.281 104.7L324.569 105.658C325.902 105.258 327.772 105.04 330.221 105.04V104.04ZM324.281 104.7L323.994 103.742C322.441 104.208 321.181 104.866 320.348 105.791L321.091 106.46L321.835 107.129C322.322 106.587 323.189 106.072 324.569 105.658L324.281 104.7ZM321.091 106.46L320.311 105.835C319.592 106.733 319.211 107.757 319.211 108.88H320.211H321.211C321.211 108.243 321.417 107.653 321.872 107.085L321.091 106.46ZM320.211 108.88H319.211C319.211 110.692 320.31 112.04 322.057 112.956L322.521 112.07L322.985 111.184C321.653 110.486 321.211 109.708 321.211 108.88H320.211ZM322.521 112.07L322.091 112.973C323.73 113.753 325.832 114.397 328.37 114.919L328.571 113.94L328.773 112.961C326.324 112.456 324.392 111.853 322.951 111.167L322.521 112.07ZM328.571 113.94L328.375 114.921C330.944 115.434 333.732 115.985 336.74 116.571L336.931 115.59L337.123 114.609C334.118 114.022 331.332 113.472 328.768 112.959L328.571 113.94ZM336.931 115.59L336.744 116.572C339.778 117.15 342.775 117.945 345.738 118.956L346.061 118.01L346.385 117.064C343.334 116.022 340.245 115.203 337.119 114.608L336.931 115.59ZM346.061 118.01L345.738 118.956C348.666 119.956 351.335 121.274 353.751 122.908L354.311 122.08L354.872 121.252C352.301 119.513 349.471 118.117 346.385 117.064L346.061 118.01ZM354.311 122.08L353.762 122.916C356.194 124.514 358.139 126.596 359.602 129.174L360.471 128.68L361.341 128.186C359.724 125.338 357.562 123.019 354.861 121.244L354.311 122.08ZM360.471 128.68L359.602 129.174C361.035 131.699 361.781 134.89 361.781 138.8H362.781H363.781C363.781 134.643 362.988 131.088 361.341 128.186L360.471 128.68ZM362.781 138.8H361.781C361.781 143.287 360.489 147.417 357.886 151.215L358.711 151.78L359.536 152.345C362.361 148.223 363.781 143.7 363.781 138.8H362.781ZM358.711 151.78L357.884 151.218C355.368 154.922 351.568 157.969 346.415 160.331L346.831 161.24L347.248 162.149C352.655 159.671 356.774 156.412 359.539 152.342L358.711 151.78ZM346.831 161.24L346.425 160.326C341.312 162.599 334.825 163.76 326.921 163.76V164.76V165.76C335.004 165.76 341.791 164.575 347.238 162.154L346.831 161.24ZM386.152 163H385.152V164H386.152V163ZM386.152 106.13H387.152V105.13H386.152V106.13ZM363.602 106.13H362.602V107.13H363.602V106.13ZM363.602 86V85H362.602V86H363.602ZM434.662 86H435.662V85H434.662V86ZM434.662 106.13V107.13H435.662V106.13H434.662ZM412.112 106.13V105.13H411.112V106.13H412.112ZM412.112 163V164H413.112V163H412.112ZM386.152 163H387.152V106.13H386.152H385.152V163H386.152ZM386.152 106.13V105.13H363.602V106.13V107.13H386.152V106.13ZM363.602 106.13H364.602V86H363.602H362.602V106.13H363.602ZM363.602 86V87H434.662V86V85H363.602V86ZM434.662 86H433.662V106.13H434.662H435.662V86H434.662ZM434.662 106.13V105.13H412.112V106.13V107.13H434.662V106.13ZM412.112 106.13H411.112V163H412.112H413.112V106.13H412.112ZM412.112 163V162H386.152V163V164H412.112V163ZM451.415 162.56L451.652 161.588L451.415 162.56ZM436.565 156.84L435.65 156.436L435.294 157.241L436.048 157.696L436.565 156.84ZM444.925 137.92L445.426 137.055L444.461 136.495L444.01 137.516L444.925 137.92ZM457.135 143.09L456.852 144.049L456.861 144.052L456.87 144.054L457.135 143.09ZM476.165 144.52L476.371 145.499L476.389 145.495L476.407 145.49L476.165 144.52ZM479.355 143.09L480.019 143.837L480.041 143.818L480.062 143.797L479.355 143.09ZM478.035 137.48L477.571 138.366L478.035 137.48ZM471.875 135.5L471.646 136.473L471.662 136.477L471.679 136.481L471.875 135.5ZM463.625 133.74L463.41 134.717L463.422 134.719L463.433 134.721L463.625 133.74ZM454.495 131.21L454.172 132.156L454.179 132.159L454.495 131.21ZM446.135 127.14L445.574 127.968L445.586 127.976L446.135 127.14ZM440.085 120.54L439.209 121.024L439.215 121.034L440.085 120.54ZM441.735 97.22L440.91 96.6548L440.908 96.6581L441.735 97.22ZM453.725 87.76L453.323 86.8441L453.319 86.8462L453.725 87.76ZM489.035 85.89L488.822 86.8672L489.035 85.89ZM502.675 90.95L503.598 91.3335L503.938 90.5143L503.166 90.0788L502.675 90.95ZM494.865 109.76L494.418 110.654L495.377 111.134L495.788 110.143L494.865 109.76ZM483.755 105.47L483.493 106.435L483.498 106.437L483.755 105.47ZM467.475 104.7L467.187 103.742L467.475 104.7ZM464.285 106.46L463.541 105.791L463.522 105.813L463.504 105.835L464.285 106.46ZM465.715 112.07L465.251 112.956L465.268 112.965L465.285 112.973L465.715 112.07ZM471.765 113.94L471.563 114.919L471.569 114.921L471.765 113.94ZM480.125 115.59L479.933 116.571L479.938 116.572L480.125 115.59ZM489.255 118.01L488.932 118.956L489.255 118.01ZM497.505 122.08L496.944 122.908L496.956 122.916L497.505 122.08ZM503.665 128.68L502.795 129.174L503.665 128.68ZM501.905 151.78L501.08 151.215L501.078 151.218L501.905 151.78ZM490.025 161.24L490.431 162.154L490.441 162.149L490.025 161.24ZM470.115 164.76V163.76C463.738 163.76 457.584 163.035 451.652 161.588L451.415 162.56L451.178 163.532C457.272 165.018 463.585 165.76 470.115 165.76V164.76ZM451.415 162.56L451.652 161.588C445.704 160.138 440.856 158.263 437.082 155.984L436.565 156.84L436.048 157.696C440.047 160.11 445.099 162.049 451.178 163.532L451.415 162.56ZM436.565 156.84L437.479 157.244L445.839 138.324L444.925 137.92L444.01 137.516L435.65 156.436L436.565 156.84ZM444.925 137.92L444.423 138.785C448.165 140.955 452.31 142.709 456.852 144.049L457.135 143.09L457.418 142.131C453.013 140.831 449.018 139.138 445.426 137.055L444.925 137.92ZM457.135 143.09L456.87 144.054C461.494 145.322 465.983 145.96 470.335 145.96V144.96V143.96C466.18 143.96 461.869 143.351 457.399 142.126L457.135 143.09ZM470.335 144.96V145.96C472.854 145.96 474.878 145.813 476.371 145.499L476.165 144.52L475.959 143.541C474.665 143.814 472.802 143.96 470.335 143.96V144.96ZM476.165 144.52L476.407 145.49C477.934 145.109 479.181 144.582 480.019 143.837L479.355 143.09L478.69 142.343C478.208 142.771 477.329 143.198 475.922 143.55L476.165 144.52ZM479.355 143.09L480.062 143.797C480.897 142.962 481.345 141.943 481.345 140.78H480.345H479.345C479.345 141.377 479.133 141.898 478.648 142.383L479.355 143.09ZM480.345 140.78H481.345C481.345 138.917 480.271 137.523 478.499 136.594L478.035 137.48L477.571 138.366C478.878 139.051 479.345 139.857 479.345 140.78H480.345ZM478.035 137.48L478.499 136.594C476.843 135.727 474.689 135.043 472.071 134.519L471.875 135.5L471.679 136.481C474.194 136.984 476.146 137.62 477.571 138.366L478.035 137.48ZM471.875 135.5L472.104 134.527C469.596 133.936 466.833 133.347 463.816 132.759L463.625 133.74L463.433 134.721C466.43 135.306 469.167 135.89 471.646 136.473L471.875 135.5ZM463.625 133.74L463.839 132.763C460.869 132.111 457.859 131.277 454.811 130.261L454.495 131.21L454.179 132.159C457.29 133.196 460.367 134.049 463.41 134.717L463.625 133.74ZM454.495 131.21L454.818 130.264C451.888 129.263 449.178 127.943 446.684 126.304L446.135 127.14L445.586 127.976C448.225 129.71 451.088 131.103 454.172 132.156L454.495 131.21ZM446.135 127.14L446.695 126.312C444.334 124.714 442.421 122.631 440.954 120.046L440.085 120.54L439.215 121.034C440.828 123.876 442.949 126.192 445.574 127.968L446.135 127.14ZM440.085 120.54L440.96 120.056C439.522 117.455 438.775 114.185 438.775 110.2H437.775H436.775C436.775 114.428 437.567 118.052 439.21 121.024L440.085 120.54ZM437.775 110.2H438.775C438.775 105.631 440.036 101.5 442.562 97.7819L441.735 97.22L440.908 96.6581C438.153 100.713 436.775 105.236 436.775 110.2H437.775ZM441.735 97.22L442.56 97.7852C445.149 94.0065 448.985 90.9607 454.131 88.6738L453.725 87.76L453.319 86.8462C447.904 89.2526 443.747 92.5135 440.91 96.6548L441.735 97.22ZM453.725 87.76L454.126 88.6759C459.317 86.4007 465.807 85.24 473.635 85.24V84.24V83.24C465.623 83.24 458.84 84.426 453.323 86.8441L453.725 87.76ZM473.635 84.24V85.24C478.77 85.24 483.833 85.7824 488.822 86.8672L489.035 85.89L489.247 84.9128C484.117 83.7976 478.912 83.24 473.635 83.24V84.24ZM489.035 85.89L488.822 86.8672C493.796 87.9484 498.247 89.6023 502.184 91.8211L502.675 90.95L503.166 90.0788C499.036 87.751 494.393 86.0316 489.247 84.9128L489.035 85.89ZM502.675 90.95L501.751 90.5665L493.941 109.377L494.865 109.76L495.788 110.143L503.598 91.3335L502.675 90.95ZM494.865 109.76L495.312 108.866C491.446 106.933 487.679 105.477 484.011 104.503L483.755 105.47L483.498 106.437C487.017 107.37 490.656 108.774 494.418 110.654L494.865 109.76ZM483.755 105.47L484.016 104.505C480.418 103.53 476.883 103.04 473.415 103.04V104.04V105.04C476.693 105.04 480.052 105.503 483.493 106.435L483.755 105.47ZM473.415 104.04V103.04C470.877 103.04 468.787 103.262 467.187 103.742L467.475 104.7L467.762 105.658C469.096 105.258 470.966 105.04 473.415 105.04V104.04ZM467.475 104.7L467.187 103.742C465.634 104.208 464.374 104.866 463.541 105.791L464.285 106.46L465.028 107.129C465.515 106.587 466.382 106.072 467.762 105.658L467.475 104.7ZM464.285 106.46L463.504 105.835C462.786 106.733 462.405 107.757 462.405 108.88H463.405H464.405C464.405 108.243 464.611 107.653 465.066 107.085L464.285 106.46ZM463.405 108.88H462.405C462.405 110.692 463.503 112.04 465.251 112.956L465.715 112.07L466.179 111.184C464.847 110.486 464.405 109.708 464.405 108.88H463.405ZM465.715 112.07L465.285 112.973C466.924 113.753 469.026 114.397 471.563 114.919L471.765 113.94L471.966 112.961C469.517 112.456 467.586 111.853 466.145 111.167L465.715 112.07ZM471.765 113.94L471.569 114.921C474.137 115.434 476.925 115.985 479.933 116.571L480.125 115.59L480.316 114.609C477.311 114.022 474.526 113.472 471.961 112.959L471.765 113.94ZM480.125 115.59L479.938 116.572C482.971 117.15 485.969 117.945 488.932 118.956L489.255 118.01L489.578 117.064C486.527 116.022 483.439 115.203 480.312 114.608L480.125 115.59ZM489.255 118.01L488.932 118.956C491.859 119.956 494.529 121.274 496.944 122.908L497.505 122.08L498.065 121.252C495.494 119.513 492.664 118.117 489.578 117.064L489.255 118.01ZM497.505 122.08L496.956 122.916C499.388 124.514 501.332 126.596 502.795 129.174L503.665 128.68L504.534 128.186C502.918 125.338 500.755 123.019 498.054 121.244L497.505 122.08ZM503.665 128.68L502.795 129.174C504.228 131.699 504.975 134.89 504.975 138.8H505.975H506.975C506.975 134.643 506.181 131.088 504.534 128.186L503.665 128.68ZM505.975 138.8H504.975C504.975 143.287 503.682 147.417 501.08 151.215L501.905 151.78L502.73 152.345C505.554 148.223 506.975 143.7 506.975 138.8H505.975ZM501.905 151.78L501.078 151.218C498.562 154.922 494.761 157.969 489.608 160.331L490.025 161.24L490.441 162.149C495.848 159.671 499.968 156.412 502.732 152.342L501.905 151.78ZM490.025 161.24L489.619 160.326C484.506 162.599 478.018 163.76 470.115 163.76V164.76V165.76C478.198 165.76 484.984 164.575 490.431 162.154L490.025 161.24Z" fill="white" mask="url(#path-3-outside-2_204_43)"/>
<rect y="57" width="513" height="77" fill="#F70000"/>
<path d="M9.91 134L43.57 57H69.09L102.75 134H75.91L51.05 69.32H61.17L36.31 134H9.91ZM29.93 120.58L36.53 101.88H71.95L78.55 120.58H29.93ZM106.893 134V57H142.863C154.67 57 163.653 59.6033 169.813 64.81C175.973 70.0167 179.053 77.0933 179.053 86.04C179.053 91.98 177.623 97.1133 174.763 101.44C171.903 105.693 167.833 108.957 162.553 111.23C157.346 113.503 151.15 114.64 143.963 114.64H121.303L132.853 103.97V134H106.893ZM152.983 134L134.063 105.95H161.563L180.703 134H152.983ZM132.853 106.83L121.303 95.06H142.313C145.906 95.06 148.546 94.2533 150.233 92.64C151.993 91.0267 152.873 88.8267 152.873 86.04C152.873 83.2533 151.993 81.0533 150.233 79.44C148.546 77.8267 145.906 77.02 142.313 77.02H121.303L132.853 65.25V106.83ZM204.502 134V77.13H181.952V57H253.012V77.13H230.462V134H204.502ZM259.754 134V57H285.714V134H259.754ZM326.921 135.76C320.468 135.76 314.235 135.027 308.221 133.56C302.208 132.093 297.258 130.187 293.371 127.84L301.731 108.92C305.398 111.047 309.468 112.77 313.941 114.09C318.488 115.337 322.888 115.96 327.141 115.96C329.635 115.96 331.578 115.813 332.971 115.52C334.438 115.153 335.501 114.677 336.161 114.09C336.821 113.43 337.151 112.66 337.151 111.78C337.151 110.387 336.381 109.287 334.841 108.48C333.301 107.673 331.248 107.013 328.681 106.5C326.188 105.913 323.438 105.327 320.431 104.74C317.425 104.08 314.381 103.237 311.301 102.21C308.295 101.183 305.508 99.8267 302.941 98.14C300.448 96.4533 298.431 94.2533 296.891 91.54C295.351 88.7533 294.581 85.3067 294.581 81.2C294.581 76.4333 295.901 72.1067 298.541 68.22C301.255 64.26 305.251 61.1067 310.531 58.76C315.885 56.4133 322.521 55.24 330.441 55.24C335.648 55.24 340.781 55.79 345.841 56.89C350.901 57.99 355.448 59.6767 359.481 61.95L351.671 80.76C347.858 78.8533 344.155 77.4233 340.561 76.47C337.041 75.5167 333.595 75.04 330.221 75.04C327.728 75.04 325.748 75.26 324.281 75.7C322.815 76.14 321.751 76.7267 321.091 77.46C320.505 78.1933 320.211 79 320.211 79.88C320.211 81.2 320.981 82.2633 322.521 83.07C324.061 83.8033 326.078 84.4267 328.571 84.94C331.138 85.4533 333.925 86.0033 336.931 86.59C340.011 87.1767 343.055 87.9833 346.061 89.01C349.068 90.0367 351.818 91.3933 354.311 93.08C356.878 94.7667 358.931 96.9667 360.471 99.68C362.011 102.393 362.781 105.767 362.781 109.8C362.781 114.493 361.425 118.82 358.711 122.78C356.071 126.667 352.111 129.82 346.831 132.24C341.551 134.587 334.915 135.76 326.921 135.76ZM386.152 134V77.13H363.602V57H434.662V77.13H412.112V134H386.152ZM470.115 135.76C463.661 135.76 457.428 135.027 451.415 133.56C445.401 132.093 440.451 130.187 436.565 127.84L444.925 108.92C448.591 111.047 452.661 112.77 457.135 114.09C461.681 115.337 466.081 115.96 470.335 115.96C472.828 115.96 474.771 115.813 476.165 115.52C477.631 115.153 478.695 114.677 479.355 114.09C480.015 113.43 480.345 112.66 480.345 111.78C480.345 110.387 479.575 109.287 478.035 108.48C476.495 107.673 474.441 107.013 471.875 106.5C469.381 105.913 466.631 105.327 463.625 104.74C460.618 104.08 457.575 103.237 454.495 102.21C451.488 101.183 448.701 99.8267 446.135 98.14C443.641 96.4533 441.625 94.2533 440.085 91.54C438.545 88.7533 437.775 85.3067 437.775 81.2C437.775 76.4333 439.095 72.1067 441.735 68.22C444.448 64.26 448.445 61.1067 453.725 58.76C459.078 56.4133 465.715 55.24 473.635 55.24C478.841 55.24 483.975 55.79 489.035 56.89C494.095 57.99 498.641 59.6767 502.675 61.95L494.865 80.76C491.051 78.8533 487.348 77.4233 483.755 76.47C480.235 75.5167 476.788 75.04 473.415 75.04C470.921 75.04 468.941 75.26 467.475 75.7C466.008 76.14 464.945 76.7267 464.285 77.46C463.698 78.1933 463.405 79 463.405 79.88C463.405 81.2 464.175 82.2633 465.715 83.07C467.255 83.8033 469.271 84.4267 471.765 84.94C474.331 85.4533 477.118 86.0033 480.125 86.59C483.205 87.1767 486.248 87.9833 489.255 89.01C492.261 90.0367 495.011 91.3933 497.505 93.08C500.071 94.7667 502.125 96.9667 503.665 99.68C505.205 102.393 505.975 105.767 505.975 109.8C505.975 114.493 504.618 118.82 501.905 122.78C499.265 126.667 495.305 129.82 490.025 132.24C484.745 134.587 478.108 135.76 470.115 135.76Z" fill="black"/>
</svg>
